@startuml

set namespaceseparator none
skinparam dpi 96
skinparam ArrowColor Black
skinparam shadowing true
skinparam class {
  backgroundColor Business
  borderColor Red
}
skinparam object {
  backgroundColor lavender
  borderColor black
}

abstract class abstract_lambeq_class
class lambeq_class
class class_in_external_package #back:wheat;line:tomato

package external_package #DDDDDD {}
object object_of_a_class

abstract_lambeq_class <|-- lambeq_class

lambeq_class *-- class_in_external_package
lambeq_class <.r. object_of_a_class : << isInstanceOf >>
lambeq_class -- external_package : uses >



@enduml
